<svg
    xmlns="http://www.w3.org/2000/svg"
    version="1.1"
    xmlns:xlink="http://www.w3.org/1999/xlink"
    style="font-size: 10pt; overflow: visible;"
    viewBox="208.8975830078125 -274.2911071777344 411.33331298828125 127.22627258300781"
>
    <defs>
        <symbol id="path_american-voltage-source">
            <defs>
                <path
                    id="path_american-voltage-source_a"
                    d="M6.56538-2.2914c.16936 0 .3487 0 .3487-.19926s-.17934-.19925-.3487-.19925h-5.38979c-.16936 0-.3487 0-.3487.19925s.17934.19925.3487.19925h5.38979Z"
                />
                <path
                    id="path_american-voltage-source_b"
                    d="M4.07472-2.2914h2.77958c.13947 0 .32876 0 .32876-.19926s-.18929-.19925-.32876-.19925h-2.77958v-2.78954c0-.13948 0-.32877-.19925-.32877s-.19926.1893-.19926.32877v2.78954h-2.78954c-.13947 0-.32876 0-.32876.19925s.18929.19925.32876.19925h2.78954v2.78954c0 .13948 0 .32877.19926.32877s.19925-.1893.19925-.32877v-2.78954Z"
                />
            </defs>
            <g stroke="currentStroke" stroke-miterlimit="10" stroke-width=".4">
                <path
                    fill="none"
                    stroke-width="1.06267"
                    d="M16.40544.53136c-8.7671 0-15.87408 7.10697-15.87408 15.87408s7.10697 15.87408 15.87408 15.87408 15.87408-7.10697 15.87408-15.87408-7.10697-15.87408-15.87408-15.87408Zm0 15.87408"
                />
                <g stroke="none">
                    <use
                        xlink:href="#path_american-voltage-source_a"
                        x="-59.69594"
                        y="-59.69594"
                        transform="rotate(-90 23.99077 -82.01407) scale(1.33333)"
                        fill="currentColor"
                    />
                    <use
                        xlink:href="#path_american-voltage-source_b"
                        x="-59.69594"
                        y="-59.69594"
                        transform="rotate(-90 17.30681 -75.33011) scale(1.33333)"
                        fill="currentColor"
                    />
                </g>
            </g>
        </symbol>
        <symbol id="node_pigfete_solderdot">
            <g stroke="currentStroke" stroke-miterlimit="10" stroke-width=".4">
                <path
                    fill="none"
                    stroke-width=".53134"
                    d="M37.57039.26569v19.18203h-18.51952"
                />
                <path
                    fill="none"
                    stroke-width="1.06267"
                    d="M19.05087 15.08254v8.0032m0 2.9102v7.27557m0 2.9102v8.0032"
                />
                <path
                    fill="none"
                    stroke-width=".53134"
                    d="M19.05087 29.63372h18.78519m-18.7852 10.186h18.51953v19.18204"
                />
                <path
                    fill="none"
                    stroke-width="1.06267"
                    d="M14.60638 19.18205v20.90334"
                />
                <path
                    stroke="none"
                    d="M23.87798 29.63372v-3.04907l6.81375 3.04907-6.81375 3.04908Z"
                    fill="currentColor"
                />
                <path
                    fill="none"
                    stroke-width=".53134"
                    d="M14.60638 19.44772h-14.34069m37.3047 10.186v-29.10236"
                />
                <path
                    stroke-width=".53134"
                    d="M39.05169 19.44772c0-.8181-.6632-1.4813-1.4813-1.4813s-1.4813.6632-1.4813 1.4813.6632 1.4813 1.4813 1.4813 1.4813-.6632 1.4813-1.4813Zm-1.4813 0"
                    fill="currentColor"
                />
            </g>
        </symbol>
        <symbol id="path_american-inductor">
            <g
                fill="none"
                stroke="currentStroke"
                stroke-miterlimit="10"
                stroke-width=".4"
            >
                <path
                    stroke-linejoin="bevel"
                    stroke-width="1.06267"
                    d="M.53136 8.46801c0-4.38335 2.42845-7.93665 5.42415-7.93665 2.99571 0 5.42416 3.5533 5.42416 7.93665 0-4.38335 2.42844-7.93665 5.42416-7.93665 2.9957 0 5.42415 3.5533 5.42415 7.93665 0-4.38335 2.42846-7.93665 5.42416-7.93665s5.42415 3.5533 5.42415 7.93665c0-4.38335 2.42846-7.93665 5.42415-7.93665 2.99572 0 5.42417 3.5533 5.42417 7.93665"
                />
            </g>
        </symbol>
        <symbol id="path_empty-Schottky-diode">
            <g
                fill="none"
                stroke="currentStroke"
                stroke-miterlimit="10"
                stroke-width=".4"
            >
                <g stroke-width="1.06267">
                    <path d="m21.69628 13.75964-21.16492-13.22828v26.45657Z" />
                    <path
                        d="M17.46336 21.69668v5.29125h4.23292v-26.45657h4.23291v5.29125"
                    />
                </g>
            </g>
        </symbol>
        <symbol id="path_capacitor">
            <g
                fill="none"
                stroke="currentStroke"
                stroke-miterlimit="10"
                stroke-width=".4"
            >
                <path
                    stroke-width="1.06267"
                    d="M.53137.53136v31.74816m10.58244-31.74816v31.74816"
                />
            </g>
        </symbol>
        <symbol id="node_circ">
            <g
                stroke="currentStroke"
                stroke-miterlimit="10"
                stroke-width=".53134"
            >
                <path
                    d="M4.49803 2.38186c0-1.16874-.94744-2.11617-2.11617-2.11617s-2.11617.94743-2.11617 2.11617.94743 2.11617 2.11617 2.11617 2.11617-.94744 2.11617-2.11617Zm-2.11617 0"
                    fill="currentColor"
                />
            </g>
        </symbol>
        <path
            id="MJX-5-TEX-I-1D436"
            d="M50 252Q50 367 117 473T286 641T490 704Q580 704 633 653Q642 643 648 636T656 626L657 623Q660 623 684 649Q691 655 699 663T715 679T725 690L740 705H746Q760 705 760 698Q760 694 728 561Q692 422 692 421Q690 416 687 415T669 413H653Q647 419 647 422Q647 423 648 429T650 449T651 481Q651 552 619 605T510 659Q484 659 454 652T382 628T299 572T226 479Q194 422 175 346T156 222Q156 108 232 58Q280 24 350 24Q441 24 512 92T606 240Q610 253 612 255T628 257Q648 257 648 248Q648 243 647 239Q618 132 523 55T319 -22Q206 -22 128 53T50 252Z"
        />
        <path
            id="MJX-5-TEX-I-1D707"
            d="M58 -216Q44 -216 34 -208T23 -186Q23 -176 96 116T173 414Q186 442 219 442Q231 441 239 435T249 423T251 413Q251 401 220 279T187 142Q185 131 185 107V99Q185 26 252 26Q261 26 270 27T287 31T302 38T315 45T327 55T338 65T348 77T356 88T365 100L372 110L408 253Q444 395 448 404Q461 431 491 431Q504 431 512 424T523 412T525 402L449 84Q448 79 448 68Q448 43 455 35T476 26Q485 27 496 35Q517 55 537 131Q543 151 547 152Q549 153 557 153H561Q580 153 580 144Q580 138 575 117T555 63T523 13Q510 0 491 -8Q483 -10 467 -10Q446 -10 429 -4T402 11T385 29T376 44T374 51L368 45Q362 39 350 30T324 12T288 -4T246 -11Q199 -11 153 12L129 -85Q108 -167 104 -180T92 -202Q76 -216 58 -216Z"
        />
        <path
            id="MJX-6-TEX-I-1D44E"
            d="M33 157Q33 258 109 349T280 441Q331 441 370 392Q386 422 416 422Q429 422 439 414T449 394Q449 381 412 234T374 68Q374 43 381 35T402 26Q411 27 422 35Q443 55 463 131Q469 151 473 152Q475 153 483 153H487Q506 153 506 144Q506 138 501 117T481 63T449 13Q436 0 417 -8Q409 -10 393 -10Q359 -10 336 5T306 36L300 51Q299 52 296 50Q294 48 292 46Q233 -10 172 -10Q117 -10 75 30T33 157ZM351 328Q351 334 346 350T323 385T277 405Q242 405 210 374T160 293Q131 214 119 129Q119 126 119 118T118 106Q118 61 136 44T179 26Q217 26 254 59T298 110Q300 114 325 217T351 328Z"
        />
        <path
            id="MJX-6-TEX-I-1D45F"
            d="M21 287Q22 290 23 295T28 317T38 348T53 381T73 411T99 433T132 442Q161 442 183 430T214 408T225 388Q227 382 228 382T236 389Q284 441 347 441H350Q398 441 422 400Q430 381 430 363Q430 333 417 315T391 292T366 288Q346 288 334 299T322 328Q322 376 378 392Q356 405 342 405Q286 405 239 331Q229 315 224 298T190 165Q156 25 151 16Q138 -11 108 -11Q95 -11 87 -5T76 7T74 17Q74 30 114 189T154 366Q154 405 128 405Q107 405 92 377T68 316T57 280Q55 278 41 278H27Q21 284 21 287Z"
        />
        <path
            id="MJX-6-TEX-I-1D454"
            d="M311 43Q296 30 267 15T206 0Q143 0 105 45T66 160Q66 265 143 353T314 442Q361 442 401 394L404 398Q406 401 409 404T418 412T431 419T447 422Q461 422 470 413T480 394Q480 379 423 152T363 -80Q345 -134 286 -169T151 -205Q10 -205 10 -137Q10 -111 28 -91T74 -71Q89 -71 102 -80T116 -111Q116 -121 114 -130T107 -144T99 -154T92 -162L90 -164H91Q101 -167 151 -167Q189 -167 211 -155Q234 -144 254 -122T282 -75Q288 -56 298 -13Q311 35 311 43ZM384 328L380 339Q377 350 375 354T369 368T359 382T346 393T328 402T306 405Q262 405 221 352Q191 313 171 233T151 117Q151 38 213 38Q269 38 323 108L331 118L384 328Z"
        />
        <path
            id="MJX-6-TEX-I-1D436"
            d="M50 252Q50 367 117 473T286 641T490 704Q580 704 633 653Q642 643 648 636T656 626L657 623Q660 623 684 649Q691 655 699 663T715 679T725 690L740 705H746Q760 705 760 698Q760 694 728 561Q692 422 692 421Q690 416 687 415T669 413H653Q647 419 647 422Q647 423 648 429T650 449T651 481Q651 552 619 605T510 659Q484 659 454 652T382 628T299 572T226 479Q194 422 175 346T156 222Q156 108 232 58Q280 24 350 24Q441 24 512 92T606 240Q610 253 612 255T628 257Q648 257 648 248Q648 243 647 239Q618 132 523 55T319 -22Q206 -22 128 53T50 252Z"
        />
        <symbol id="path_american-resistor">
            <g
                fill="none"
                stroke="currentStroke"
                stroke-miterlimit="10"
                stroke-width=".4"
            >
                <path
                    stroke-linejoin="bevel"
                    stroke-width="1.06267"
                    d="m.53136 8.46838 4.05887-7.93703 7.05509 15.87407 7.05509-15.87407 7.05507 15.87407 7.05509-15.87407 7.05509 15.87407 4.05887-7.93704"
                />
            </g>
        </symbol>
        <path
            id="MJX-12-TEX-I-1D452"
            d="M39 168Q39 225 58 272T107 350T174 402T244 433T307 442H310Q355 442 388 420T421 355Q421 265 310 237Q261 224 176 223Q139 223 138 221Q138 219 132 186T125 128Q125 81 146 54T209 26T302 45T394 111Q403 121 406 121Q410 121 419 112T429 98T420 82T390 55T344 24T281 -1T205 -11Q126 -11 83 42T39 168ZM373 353Q367 405 305 405Q272 405 244 391T199 357T170 316T154 280T149 261Q149 260 169 260Q282 260 327 284T373 353Z"
        />
        <path
            id="MJX-12-TEX-I-1D461"
            d="M26 385Q19 392 19 395Q19 399 22 411T27 425Q29 430 36 430T87 431H140L159 511Q162 522 166 540T173 566T179 586T187 603T197 615T211 624T229 626Q247 625 254 615T261 596Q261 589 252 549T232 470L222 433Q222 431 272 431H323Q330 424 330 420Q330 398 317 385H210L174 240Q135 80 135 68Q135 26 162 26Q197 26 230 60T283 144Q285 150 288 151T303 153H307Q322 153 322 145Q322 142 319 133Q314 117 301 95T267 48T216 6T155 -11Q125 -11 98 4T59 56Q57 64 57 83V101L92 241Q127 382 128 383Q128 385 77 385H26Z"
        />
        <path
            id="MJX-12-TEX-I-1D45F"
            d="M21 287Q22 290 23 295T28 317T38 348T53 381T73 411T99 433T132 442Q161 442 183 430T214 408T225 388Q227 382 228 382T236 389Q284 441 347 441H350Q398 441 422 400Q430 381 430 363Q430 333 417 315T391 292T366 288Q346 288 334 299T322 328Q322 376 378 392Q356 405 342 405Q286 405 239 331Q229 315 224 298T190 165Q156 25 151 16Q138 -11 108 -11Q95 -11 87 -5T76 7T74 17Q74 30 114 189T154 366Q154 405 128 405Q107 405 92 377T68 316T57 280Q55 278 41 278H27Q21 284 21 287Z"
        />
        <path
            id="MJX-12-TEX-I-1D45C"
            d="M201 -11Q126 -11 80 38T34 156Q34 221 64 279T146 380Q222 441 301 441Q333 441 341 440Q354 437 367 433T402 417T438 387T464 338T476 268Q476 161 390 75T201 -11ZM121 120Q121 70 147 48T206 26Q250 26 289 58T351 142Q360 163 374 216T388 308Q388 352 370 375Q346 405 306 405Q243 405 195 347Q158 303 140 230T121 120Z"
        />
        <path
            id="MJX-12-TEX-I-1D445"
            d="M230 637Q203 637 198 638T193 649Q193 676 204 682Q206 683 378 683Q550 682 564 680Q620 672 658 652T712 606T733 563T739 529Q739 484 710 445T643 385T576 351T538 338L545 333Q612 295 612 223Q612 212 607 162T602 80V71Q602 53 603 43T614 25T640 16Q668 16 686 38T712 85Q717 99 720 102T735 105Q755 105 755 93Q755 75 731 36Q693 -21 641 -21H632Q571 -21 531 4T487 82Q487 109 502 166T517 239Q517 290 474 313Q459 320 449 321T378 323H309L277 193Q244 61 244 59Q244 55 245 54T252 50T269 48T302 46H333Q339 38 339 37T336 19Q332 6 326 0H311Q275 2 180 2Q146 2 117 2T71 2T50 1Q33 1 33 10Q33 12 36 24Q41 43 46 45Q50 46 61 46H67Q94 46 127 49Q141 52 146 61Q149 65 218 339T287 628Q287 635 230 637ZM630 554Q630 586 609 608T523 636Q521 636 500 636T462 637H440Q393 637 386 627Q385 624 352 494T319 361Q319 360 388 360Q466 361 492 367Q556 377 592 426Q608 449 619 486T630 554Z"
        />
    </defs>
    <g class="" style="">
        <use
            xlink:href="#path_american-voltage-source"
            fill="#fff"
            stroke="#000"
            style="color: #000;"
            transform="matrix(6.123233995736766e-17,1,-1,6.123233995736766e-17,243.17709354330705,-224.27923133858263)"
            class="draggable"
        />
        <line
            x1="226.77165354330705"
            y1="-245.66929133858264"
            x2="226.77165354330705"
            y2="-223.74787133858263"
            fill="none"
            stroke-width="0.5"
            stroke="#000"
        />
        <line
            x1="226.77165354330705"
            y1="-170.07829133858263"
            x2="226.77165354330705"
            y2="-191.99971133858264"
            fill="none"
            stroke-width="0.5"
            stroke="#000"
        />
    </g>
    <g class="draggable">
        <use
            xlink:href="#node_pigfete_solderdot"
            fill="#fff"
            stroke="#000"
            transform="matrix(6.123233995736766e-17,-1,1,6.123233995736766e-17,264.03528,-226.99661)"
            style="color: #000;"
        />
    </g>
    <g style="">
        <use
            xlink:href="#path_american-inductor"
            fill="#fff"
            stroke="#000"
            style="color: #000;"
            transform="matrix(1,0,0,1,365.1735,-272.82249)"
            class="draggable"
        />
        <line
            x1="349.606"
            y1="-264.567"
            x2="366.23618999999997"
            y2="-264.567"
            fill="none"
            stroke-width="0.5"
            stroke="#000"
        />
        <line
            x1="425.197"
            y1="-264.567"
            x2="408.56682"
            y2="-264.567"
            fill="none"
            stroke-width="0.5"
            stroke="#000"
        />
    </g>
    <g style="">
        <use
            xlink:href="#path_empty-Schottky-diode"
            fill="#fff"
            stroke="#000"
            style="color: #000;"
            transform="matrix(6.123233995736766e-17,-1,1,6.123233995736766e-17,326.39736,-196.76018000000002)"
            class="draggable"
        />
        <line
            x1="340.157"
            y1="-170.079"
            x2="340.157"
            y2="-197.29154000000003"
            fill="none"
            stroke-width="0.5"
            stroke="#000"
        />
        <line
            x1="340.157"
            y1="-245.669"
            x2="340.157"
            y2="-218.45646000000002"
            fill="none"
            stroke-width="0.5"
            stroke="#000"
        />
    </g>
    <g style="">
        <use
            xlink:href="#path_capacitor"
            fill="#fff"
            stroke="#000"
            style="color: #000;"
            transform="matrix(6.123233995736766e-17,-1,1,6.123233995736766e-17,418.24056,-202.05141000000003)"
            class="draggable"
        />
        <line
            x1="434.646"
            y1="-170.079"
            x2="434.646"
            y2="-202.58278000000004"
            fill="none"
            stroke-width="0.5"
            stroke="#000"
        />
        <line
            x1="434.646"
            y1="-245.669"
            x2="434.646"
            y2="-213.16522000000003"
            fill="none"
            stroke-width="0.5"
            stroke="#000"
        />
    </g>
    <g class="draggable">
        <use
            xlink:href="#node_circ"
            fill="#fff"
            stroke="#000"
            transform="matrix(1,0,0,1,337.77513999999996,-266.94886)"
            style="color: #000;"
        />
    </g>
    <g class="draggable">
        <use
            xlink:href="#node_circ"
            fill="#fff"
            stroke="#000"
            transform="matrix(1,0,0,1,337.77513999999996,-266.94886)"
            style="color: #000;"
        />
    </g>
    <g class="draggable">
        <use
            xlink:href="#node_circ"
            fill="#fff"
            stroke="#000"
            transform="matrix(1,0,0,1,337.77513999999996,-153.56286)"
            style="color: #000;"
        />
    </g>
    <g class="draggable">
        <use
            xlink:href="#node_circ"
            fill="#fff"
            stroke="#000"
            transform="matrix(1,0,0,1,337.77513999999996,-153.56286)"
            style="color: #000;"
        />
    </g>
    <g class="draggable">
        <use
            xlink:href="#node_circ"
            fill="#fff"
            stroke="#000"
            transform="matrix(1,0,0,1,432.26414,-266.94886)"
            style="color: #000;"
        />
    </g>
    <g class="draggable">
        <use
            xlink:href="#node_circ"
            fill="#fff"
            stroke="#000"
            transform="matrix(1,0,0,1,432.26414,-266.94886)"
            style="color: #000;"
        />
    </g>
    <g class="draggable">
        <use
            xlink:href="#node_circ"
            fill="#fff"
            stroke="#000"
            transform="matrix(1,0,0,1,432.26414,-153.56286)"
            style="color: #000;"
        />
    </g>
    <g class="draggable">
        <use
            xlink:href="#node_circ"
            fill="#fff"
            stroke="#000"
            transform="matrix(1,0,0,1,432.26414,-153.56286)"
            style="color: #000;"
        />
    </g>
    <g>
        <polyline
            points="0,9.448999999999984 0,-9.449000000000012"
            fill="none"
            stroke-dasharray="0.4pt 0pt"
            stroke-opacity="1"
            stroke-width="0.5333333333333333"
            stroke="#000"
            transform="matrix(1,0,0,1,340.157,-255.118)"
        />
    </g>
    <g>
        <polyline
            points="0,-9.449000000000012 0,9.448999999999984"
            fill="none"
            stroke-dasharray="0.4pt 0pt"
            stroke-opacity="1"
            stroke-width="0.5333333333333333"
            stroke="#000"
            transform="matrix(1,0,0,1,340.157,-160.63)"
        />
    </g>
    <g>
        <polyline
            points="0,9.448499999999996 0,-9.448499999999996"
            fill="none"
            stroke-dasharray="0.4pt 0pt"
            stroke-opacity="1"
            stroke-width="0.5333333333333333"
            stroke="#000"
            transform="matrix(1,0,0,1,434.646,-160.6295)"
        />
    </g>
    <g>
        <polyline
            points="0,9.448999999999984 0,-9.449000000000012"
            fill="none"
            stroke-dasharray="0.4pt 0pt"
            stroke-opacity="1"
            stroke-width="0.5333333333333333"
            stroke="#000"
            transform="matrix(1,0,0,1,434.646,-255.118)"
        />
    </g>
    <g class="">
        <polyline
            points="-18.897673228346463,9.448854330708663 -18.897673228346463,-9.448783464566922 -0.00003543307087738867,-9.448783464566922 18.897673228346463,-9.448783464566922 18.897673228346463,-9.448854330708663"
            fill="none"
            stroke-dasharray="0.4pt 0pt"
            stroke-opacity="1"
            stroke-width="0.5333333333333333"
            stroke="#000"
            transform="matrix(1,0,0,1,245.66932677165354,-255.11814566929132)"
        />
    </g>
    <g class="">
        <polyline
            points="0,-9.4488188976378 0,9.4488188976378"
            fill="none"
            stroke-dasharray="0.4pt 0pt"
            stroke-opacity="1"
            stroke-width="0.5333333333333333"
            stroke="#000"
            transform="matrix(1,0,0,1,226.77165354330708,-160.62992125984252)"
        />
    </g>
    <g class="">
        <rect
            width="45.910666666666664"
            height="36.461666666666666"
            x="260.50966666666665"
            y="-207.20683333333332"
            transform="matrix(1,0,0,1,0,0)"
            style=""
            stroke-dasharray="1pt 0pt"
            stroke-opacity="1"
            stroke-width="1.3333333333333333"
            stroke="#000"
            fill-opacity="0"
            fill="none"
        />
        <g
            class="pointerNone"
            transform="matrix(1,0,0,1,274.9611233139038,-194.82109134292602)"
            fill="#000"
        >
            <g
                transform="matrix(0.012692352439768548,0,0,0.012692924416146325,0,8.948511713383159)"
            >
                <g
                    stroke="currentColor"
                    fill="inherit"
                    stroke-width="0"
                    transform="scale(1,-1)"
                >
                    <g>
                        <g transform="translate(603,0)">
                            <use xlink:href="#MJX-5-TEX-I-1D436" />
                        </g>
                        <use xlink:href="#MJX-5-TEX-I-1D707" />
                    </g>
                </g>
            </g>
        </g>
    </g>
    <g class="draggable">
        <use
            xlink:href="#node_circ"
            fill="#fff"
            stroke="#000"
            transform="matrix(1,0,0,1,281.08313999999996,-210.25585999999998)"
            style="color: #000;"
        />
    </g>
    <g class="">
        <polyline
            points="0.009000000000014552,-9.826999999999998 0.009000000000014552,9.826999999999998 -0.009000000000014552,9.826999999999998"
            fill="none"
            stroke-dasharray="0.4pt 0pt"
            stroke-opacity="1"
            stroke-width="0.5333333333333333"
            stroke="#000"
            transform="matrix(1,0,0,1,283.474,-217.701)"
        />
    </g>
    <g class="">
        <rect
            width="45.910666666666664"
            height="45.910666666666664"
            x="572.3202572178477"
            y="-226.10498687664042"
            transform="matrix(1,0,0,1,0,0)"
            style=""
            stroke-dasharray="1pt 0pt"
            stroke-opacity="1"
            stroke-width="1.3333333333333333"
            stroke="#000"
            fill-opacity="0"
            fill="none"
        />
        <g
            class="pointerNone"
            transform="matrix(1,0,0,1,578.3129516962006,-208.92462741263083)"
            fill="#000"
        >
            <g
                transform="matrix(0.012691835373370387,0,0,0.012692248420403762,0,8.948035136384652)"
            >
                <g
                    stroke="currentColor"
                    fill="inherit"
                    stroke-width="0"
                    transform="scale(1,-1)"
                >
                    <g>
                        <g transform="translate(760,0)">
                            <use xlink:href="#MJX-6-TEX-I-1D44E" />
                        </g>
                        <g transform="translate(1289,0)">
                            <use xlink:href="#MJX-6-TEX-I-1D45F" />
                        </g>
                        <g transform="translate(1740,0)">
                            <use xlink:href="#MJX-6-TEX-I-1D454" />
                        </g>
                        <g transform="translate(2217,0)">
                            <use xlink:href="#MJX-6-TEX-I-1D44E" />
                        </g>
                        <use xlink:href="#MJX-6-TEX-I-1D436" />
                    </g>
                </g>
            </g>
        </g>
    </g>
    <g class="draggable">
        <use
            xlink:href="#node_circ"
            fill="#fff"
            stroke="#000"
            transform="matrix(1,0,0,1,592.8937305511811,-229.15351354330707)"
            style="color: #000;"
            class=""
        />
    </g>
    <g class="draggable">
        <use
            xlink:href="#node_circ"
            fill="#fff"
            stroke="#000"
            transform="matrix(1,0,0,1,592.8937305511811,-181.9094190551181)"
            style="color: #000;"
            class=""
        />
    </g>
    <g class="">
        <polyline
            points="-51.96850393700788,-18.897637795275593 51.96850393700788,-18.897637795275593 51.96850393700788,18.89763779527559"
            fill="none"
            stroke-dasharray="0.4pt 0pt"
            stroke-opacity="1"
            stroke-width="0.5333333333333333"
            stroke="#000"
            transform="matrix(1,0,0,1,543.3070866141732,-245.66929133858267)"
        />
    </g>
    <g class="">
        <polyline
            points="-51.96850393700788,14.173228346456693 51.96850393700788,14.173228346456693 51.96850393700788,-14.173228346456693"
            fill="none"
            stroke-dasharray="0.4pt 0pt"
            stroke-opacity="1"
            stroke-width="0.5333333333333333"
            stroke="#000"
            transform="matrix(1,0,0,1,543.3070866141732,-165.35433070866142)"
        />
    </g>
    <g class="">
        <polyline
            points="-103.93717322834647,-0.000051181102350028596 103.93717322834647,-0.000051181102350028596 103.93717322834647,0.000051181102350028596"
            fill="none"
            stroke-dasharray="0.4pt 0pt"
            stroke-opacity="1"
            stroke-width="0.5333333333333333"
            stroke="#000"
            transform="matrix(1,0,0,1,330.70882677165355,-151.18105118110236)"
        />
    </g>
    <g>
        <polyline
            points="-13.417499999999961,0 13.417500000000018,0"
            fill="none"
            stroke-dasharray="0.4pt 0pt"
            stroke-opacity="1"
            stroke-width="0.5333333333333333"
            stroke="#000"
            transform="matrix(1,0,0,1,336.1885,-264.567)"
        />
    </g>
    <g>
        <polyline
            points="-4.724500000000035,0 4.724499999999978,0"
            fill="none"
            stroke-dasharray="0.4pt 0pt"
            stroke-opacity="1"
            stroke-width="0.5333333333333333"
            stroke="#000"
            transform="matrix(1,0,0,1,429.92150000000004,-264.567)"
        />
    </g>
    <g style="">
        <use
            xlink:href="#path_american-resistor"
            fill="#fff"
            stroke="#000"
            style="color: #000;"
            transform="matrix(6.123233995736766e-17,1,-1,6.123233995736766e-17,499.80696267716536,-258.44847244094484)"
            class="draggable"
        />
        <line
            x1="491.33858267716533"
            y1="-264.56692913385825"
            x2="491.33858267716533"
            y2="-257.38578244094487"
            fill="none"
            stroke-width="0.5"
            stroke="#000"
        />
        <line
            x1="491.33858267716533"
            y1="-207.87401574803147"
            x2="491.33858267716533"
            y2="-215.05515244094482"
            fill="none"
            stroke-width="0.5"
            stroke="#000"
        />
    </g>
    <g style="">
        <use
            xlink:href="#path_american-resistor"
            fill="#fff"
            stroke="#000"
            style="color: #000;"
            transform="matrix(6.123233995736766e-17,1,-1,6.123233995736766e-17,499.80696267716536,-201.7555590551181)"
            class="draggable"
        />
        <line
            x1="491.33858267716533"
            y1="-207.87401574803147"
            x2="491.33858267716533"
            y2="-200.6928690551181"
            fill="none"
            stroke-width="0.5"
            stroke="#000"
        />
        <line
            x1="491.33858267716533"
            y1="-151.1811023622047"
            x2="491.33858267716533"
            y2="-158.3622390551181"
            fill="none"
            stroke-width="0.5"
            stroke="#000"
        />
    </g>
    <g>
        <polyline
            points="28.346456692913364,0 -28.34645669291342,0"
            fill="none"
            stroke-dasharray="0.4pt 0pt"
            stroke-opacity="1"
            stroke-width="0.5333333333333333"
            stroke="#000"
            transform="matrix(1,0,0,1,462.99212598425197,-264.56692913385825)"
        />
    </g>
    <g>
        <polyline
            points="28.346456692913364,0 -28.34645669291342,0"
            fill="none"
            stroke-dasharray="0.4pt 0pt"
            stroke-opacity="1"
            stroke-width="0.5333333333333333"
            stroke="#000"
            transform="matrix(1,0,0,1,462.99212598425197,-151.1811023622047)"
        />
    </g>
    <g class="draggable">
        <use
            xlink:href="#node_circ"
            fill="#fff"
            stroke="#000"
            transform="matrix(1,0,0,1,488.9567226771653,-266.94878913385827)"
            style="color: #000;"
        />
    </g>
    <g class="draggable">
        <use
            xlink:href="#node_circ"
            fill="#fff"
            stroke="#000"
            transform="matrix(1,0,0,1,488.9567226771653,-153.5629623622047)"
            style="color: #000;"
        />
    </g>
    <g class="draggable">
        <use
            xlink:href="#node_circ"
            fill="#fff"
            stroke="#000"
            transform="matrix(1,0,0,1,488.9567226771653,-210.25587574803146)"
            style="color: #000;"
        />
    </g>
    <g class="">
        <rect
            width="45.910666666666664"
            height="36.461666666666666"
            style=""
            x="515.627343832021"
            y="-197.75839238845143"
            transform="matrix(1,0,0,1,0,0)"
            stroke-dasharray="1pt 0pt"
            stroke-opacity="1"
            stroke-width="1.3333333333333333"
            stroke="#000"
            fill-opacity="0"
            fill="none"
        />
        <g
            class="pointerNone"
            transform="matrix(1,0,0,1,522.8453133500467,-183.99552036645844)"
            fill="#000"
        >
            <g
                transform="matrix(0.012691422280052045,0,0,0.012693071491615181,0,8.669367828773169)"
            >
                <g
                    stroke="currentColor"
                    fill="inherit"
                    stroke-width="0"
                    transform="scale(1,-1)"
                >
                    <g>
                        <g transform="translate(759,0)">
                            <use xlink:href="#MJX-12-TEX-I-1D452" />
                        </g>
                        <g transform="translate(1225,0)">
                            <use xlink:href="#MJX-12-TEX-I-1D461" />
                        </g>
                        <g transform="translate(1586,0)">
                            <use xlink:href="#MJX-12-TEX-I-1D45F" />
                        </g>
                        <g transform="translate(2037,0)">
                            <use xlink:href="#MJX-12-TEX-I-1D45C" />
                        </g>
                        <use xlink:href="#MJX-12-TEX-I-1D445" />
                    </g>
                </g>
            </g>
        </g>
    </g>
    <g class="">
        <polyline
            points="-23.622047244094475,-4.724409448818882 4.724409448818889,-4.724409448818882 23.622047244094475,-4.724409448818882 23.622047244094475,4.724409448818882"
            fill="none"
            stroke-dasharray="0.4pt 0pt"
            stroke-opacity="1"
            stroke-width="0.5333333333333333"
            stroke="#000"
            transform="matrix(1,0,0,1,514.9606299212599,-203.14960629921256)"
        />
    </g>
    <g class="draggable">
        <use
            xlink:href="#node_circ"
            fill="#fff"
            stroke="#000"
            transform="matrix(1,0,0,1,536.2008171653544,-200.80705685039368)"
            style="color: #000;"
            class=""
        />
    </g>
</svg>
