<svg
    xmlns="http://www.w3.org/2000/svg"
    version="1.1"
    xmlns:xlink="http://www.w3.org/1999/xlink"
    style="font-size: 10pt; overflow: visible;"
    viewBox="171.102294921875 -274.2910461425781 349.91668701171875 127.2264404296875"
>
    <defs>
        <symbol id="path_american-voltage-source">
            <defs>
                <path
                    id="path_american-voltage-source_a"
                    d="M6.56538-2.2914c.16936 0 .3487 0 .3487-.19926s-.17934-.19925-.3487-.19925h-5.38979c-.16936 0-.3487 0-.3487.19925s.17934.19925.3487.19925h5.38979Z"
                />
                <path
                    id="path_american-voltage-source_b"
                    d="M4.07472-2.2914h2.77958c.13947 0 .32876 0 .32876-.19926s-.18929-.19925-.32876-.19925h-2.77958v-2.78954c0-.13948 0-.32877-.19925-.32877s-.19926.1893-.19926.32877v2.78954h-2.78954c-.13947 0-.32876 0-.32876.19925s.18929.19925.32876.19925h2.78954v2.78954c0 .13948 0 .32877.19926.32877s.19925-.1893.19925-.32877v-2.78954Z"
                />
            </defs>
            <g stroke="currentStroke" stroke-miterlimit="10" stroke-width=".4">
                <path
                    fill="none"
                    stroke-width="1.06267"
                    d="M16.40544.53136c-8.7671 0-15.87408 7.10697-15.87408 15.87408s7.10697 15.87408 15.87408 15.87408 15.87408-7.10697 15.87408-15.87408-7.10697-15.87408-15.87408-15.87408Zm0 15.87408"
                />
                <g stroke="none">
                    <use
                        xlink:href="#path_american-voltage-source_a"
                        x="-59.69594"
                        y="-59.69594"
                        transform="rotate(-90 23.99077 -82.01407) scale(1.33333)"
                        fill="currentColor"
                    />
                    <use
                        xlink:href="#path_american-voltage-source_b"
                        x="-59.69594"
                        y="-59.69594"
                        transform="rotate(-90 17.30681 -75.33011) scale(1.33333)"
                        fill="currentColor"
                    />
                </g>
            </g>
        </symbol>
        <symbol id="node_pigfete_solderdot">
            <g stroke="currentStroke" stroke-miterlimit="10" stroke-width=".4">
                <path
                    fill="none"
                    stroke-width=".53134"
                    d="M37.57039.26569v19.18203h-18.51952"
                />
                <path
                    fill="none"
                    stroke-width="1.06267"
                    d="M19.05087 15.08254v8.0032m0 2.9102v7.27557m0 2.9102v8.0032"
                />
                <path
                    fill="none"
                    stroke-width=".53134"
                    d="M19.05087 29.63372h18.78519m-18.7852 10.186h18.51953v19.18204"
                />
                <path
                    fill="none"
                    stroke-width="1.06267"
                    d="M14.60638 19.18205v20.90334"
                />
                <path
                    stroke="none"
                    d="M23.87798 29.63372v-3.04907l6.81375 3.04907-6.81375 3.04908Z"
                    fill="currentColor"
                />
                <path
                    fill="none"
                    stroke-width=".53134"
                    d="M14.60638 19.44772h-14.34069m37.3047 10.186v-29.10236"
                />
                <path
                    stroke-width=".53134"
                    d="M39.05169 19.44772c0-.8181-.6632-1.4813-1.4813-1.4813s-1.4813.6632-1.4813 1.4813.6632 1.4813 1.4813 1.4813 1.4813-.6632 1.4813-1.4813Zm-1.4813 0"
                    fill="currentColor"
                />
            </g>
        </symbol>
        <symbol id="path_american-inductor">
            <g
                fill="none"
                stroke="currentStroke"
                stroke-miterlimit="10"
                stroke-width=".4"
            >
                <path
                    stroke-linejoin="bevel"
                    stroke-width="1.06267"
                    d="M.53136 8.46801c0-4.38335 2.42845-7.93665 5.42415-7.93665 2.99571 0 5.42416 3.5533 5.42416 7.93665 0-4.38335 2.42844-7.93665 5.42416-7.93665 2.9957 0 5.42415 3.5533 5.42415 7.93665 0-4.38335 2.42846-7.93665 5.42416-7.93665s5.42415 3.5533 5.42415 7.93665c0-4.38335 2.42846-7.93665 5.42415-7.93665 2.99572 0 5.42417 3.5533 5.42417 7.93665"
                />
            </g>
        </symbol>
        <symbol id="path_empty-Schottky-diode">
            <g
                fill="none"
                stroke="currentStroke"
                stroke-miterlimit="10"
                stroke-width=".4"
            >
                <g stroke-width="1.06267">
                    <path d="m21.69628 13.75964-21.16492-13.22828v26.45657Z" />
                    <path
                        d="M17.46336 21.69668v5.29125h4.23292v-26.45657h4.23291v5.29125"
                    />
                </g>
            </g>
        </symbol>
        <symbol id="path_capacitor">
            <g
                fill="none"
                stroke="currentStroke"
                stroke-miterlimit="10"
                stroke-width=".4"
            >
                <path
                    stroke-width="1.06267"
                    d="M.53137.53136v31.74816m10.58244-31.74816v31.74816"
                />
            </g>
        </symbol>
        <symbol id="node_circ">
            <g
                stroke="currentStroke"
                stroke-miterlimit="10"
                stroke-width=".53134"
            >
                <path
                    d="M4.49803 2.38186c0-1.16874-.94744-2.11617-2.11617-2.11617s-2.11617.94743-2.11617 2.11617.94743 2.11617 2.11617 2.11617 2.11617-.94744 2.11617-2.11617Zm-2.11617 0"
                    fill="currentColor"
                />
            </g>
        </symbol>
        <path
            id="MJX-11-TEX-I-1D436"
            d="M50 252Q50 367 117 473T286 641T490 704Q580 704 633 653Q642 643 648 636T656 626L657 623Q660 623 684 649Q691 655 699 663T715 679T725 690L740 705H746Q760 705 760 698Q760 694 728 561Q692 422 692 421Q690 416 687 415T669 413H653Q647 419 647 422Q647 423 648 429T650 449T651 481Q651 552 619 605T510 659Q484 659 454 652T382 628T299 572T226 479Q194 422 175 346T156 222Q156 108 232 58Q280 24 350 24Q441 24 512 92T606 240Q610 253 612 255T628 257Q648 257 648 248Q648 243 647 239Q618 132 523 55T319 -22Q206 -22 128 53T50 252Z"
        />
        <path
            id="MJX-11-TEX-I-1D707"
            d="M58 -216Q44 -216 34 -208T23 -186Q23 -176 96 116T173 414Q186 442 219 442Q231 441 239 435T249 423T251 413Q251 401 220 279T187 142Q185 131 185 107V99Q185 26 252 26Q261 26 270 27T287 31T302 38T315 45T327 55T338 65T348 77T356 88T365 100L372 110L408 253Q444 395 448 404Q461 431 491 431Q504 431 512 424T523 412T525 402L449 84Q448 79 448 68Q448 43 455 35T476 26Q485 27 496 35Q517 55 537 131Q543 151 547 152Q549 153 557 153H561Q580 153 580 144Q580 138 575 117T555 63T523 13Q510 0 491 -8Q483 -10 467 -10Q446 -10 429 -4T402 11T385 29T376 44T374 51L368 45Q362 39 350 30T324 12T288 -4T246 -11Q199 -11 153 12L129 -85Q108 -167 104 -180T92 -202Q76 -216 58 -216Z"
        />
        <path
            id="MJX-16-TEX-I-1D44E"
            d="M33 157Q33 258 109 349T280 441Q331 441 370 392Q386 422 416 422Q429 422 439 414T449 394Q449 381 412 234T374 68Q374 43 381 35T402 26Q411 27 422 35Q443 55 463 131Q469 151 473 152Q475 153 483 153H487Q506 153 506 144Q506 138 501 117T481 63T449 13Q436 0 417 -8Q409 -10 393 -10Q359 -10 336 5T306 36L300 51Q299 52 296 50Q294 48 292 46Q233 -10 172 -10Q117 -10 75 30T33 157ZM351 328Q351 334 346 350T323 385T277 405Q242 405 210 374T160 293Q131 214 119 129Q119 126 119 118T118 106Q118 61 136 44T179 26Q217 26 254 59T298 110Q300 114 325 217T351 328Z"
        />
        <path
            id="MJX-16-TEX-I-1D45F"
            d="M21 287Q22 290 23 295T28 317T38 348T53 381T73 411T99 433T132 442Q161 442 183 430T214 408T225 388Q227 382 228 382T236 389Q284 441 347 441H350Q398 441 422 400Q430 381 430 363Q430 333 417 315T391 292T366 288Q346 288 334 299T322 328Q322 376 378 392Q356 405 342 405Q286 405 239 331Q229 315 224 298T190 165Q156 25 151 16Q138 -11 108 -11Q95 -11 87 -5T76 7T74 17Q74 30 114 189T154 366Q154 405 128 405Q107 405 92 377T68 316T57 280Q55 278 41 278H27Q21 284 21 287Z"
        />
        <path
            id="MJX-16-TEX-I-1D454"
            d="M311 43Q296 30 267 15T206 0Q143 0 105 45T66 160Q66 265 143 353T314 442Q361 442 401 394L404 398Q406 401 409 404T418 412T431 419T447 422Q461 422 470 413T480 394Q480 379 423 152T363 -80Q345 -134 286 -169T151 -205Q10 -205 10 -137Q10 -111 28 -91T74 -71Q89 -71 102 -80T116 -111Q116 -121 114 -130T107 -144T99 -154T92 -162L90 -164H91Q101 -167 151 -167Q189 -167 211 -155Q234 -144 254 -122T282 -75Q288 -56 298 -13Q311 35 311 43ZM384 328L380 339Q377 350 375 354T369 368T359 382T346 393T328 402T306 405Q262 405 221 352Q191 313 171 233T151 117Q151 38 213 38Q269 38 323 108L331 118L384 328Z"
        />
        <path
            id="MJX-16-TEX-I-1D436"
            d="M50 252Q50 367 117 473T286 641T490 704Q580 704 633 653Q642 643 648 636T656 626L657 623Q660 623 684 649Q691 655 699 663T715 679T725 690L740 705H746Q760 705 760 698Q760 694 728 561Q692 422 692 421Q690 416 687 415T669 413H653Q647 419 647 422Q647 423 648 429T650 449T651 481Q651 552 619 605T510 659Q484 659 454 652T382 628T299 572T226 479Q194 422 175 346T156 222Q156 108 232 58Q280 24 350 24Q441 24 512 92T606 240Q610 253 612 255T628 257Q648 257 648 248Q648 243 647 239Q618 132 523 55T319 -22Q206 -22 128 53T50 252Z"
        />
    </defs>
    <g style="" class="">
        <use
            xlink:href="#path_american-voltage-source"
            fill="#fff"
            stroke="#000"
            transform="matrix(6.123233995736766e-17,1,-1,6.123233995736766e-17,205.38181795275585,-224.2792313385827)"
            style="color: #000;"
            class="draggable"
        />
        <line
            x1="188.97637795275585"
            y1="-245.66929133858267"
            x2="188.97637795275585"
            y2="-223.74787133858268"
            fill="none"
            stroke-width="0.5"
            stroke="#000"
        />
        <line
            x1="188.97637795275585"
            y1="-170.0782913385827"
            x2="188.97637795275585"
            y2="-191.9997113385827"
            fill="none"
            stroke-width="0.5"
            stroke="#000"
        />
    </g>
    <g class="draggable">
        <use
            xlink:href="#node_pigfete_solderdot"
            fill="#fff"
            stroke="#000"
            transform="matrix(6.123233995736766e-17,-1,1,6.123233995736766e-17,264.03528,-226.99661)"
            style="color: #000;"
        />
    </g>
    <g style="" class="">
        <use
            xlink:href="#path_american-inductor"
            fill="#fff"
            stroke="#000"
            style="color: #000;"
            transform="matrix(1,0,0,1,365.17379921259834,-272.82241913385826)"
            class="draggable"
        />
        <line
            x1="349.6062992125984"
            y1="-264.56692913385825"
            x2="366.2364892125983"
            y2="-264.56692913385825"
            fill="none"
            stroke-width="0.5"
            stroke="#000"
        />
        <line
            x1="425.19729921259835"
            y1="-264.56692913385825"
            x2="408.56711921259836"
            y2="-264.56692913385825"
            fill="none"
            stroke-width="0.5"
            stroke="#000"
        />
    </g>
    <g style="" class="">
        <use
            xlink:href="#path_empty-Schottky-diode"
            fill="#fff"
            stroke="#000"
            style="color: #000;"
            transform="matrix(6.123233995736766e-17,-1,1,6.123233995736766e-17,326.39772220472446,-196.76018000000002)"
            class="draggable"
        />
        <line
            x1="340.15736220472445"
            y1="-170.079"
            x2="340.15736220472445"
            y2="-197.29154000000003"
            fill="none"
            stroke-width="0.5"
            stroke="#000"
        />
        <line
            x1="340.15736220472445"
            y1="-245.669"
            x2="340.15736220472445"
            y2="-218.45646000000002"
            fill="none"
            stroke-width="0.5"
            stroke="#000"
        />
    </g>
    <g style="">
        <use
            xlink:href="#path_capacitor"
            fill="#fff"
            stroke="#000"
            style="color: #000;"
            transform="matrix(6.123233995736766e-17,-1,1,6.123233995736766e-17,418.24062299212596,-202.05107929133857)"
            class="draggable"
        />
        <line
            x1="434.64606299212596"
            y1="-170.07866929133854"
            x2="434.64606299212596"
            y2="-202.58244929133858"
            fill="none"
            stroke-width="0.5"
            stroke="#000"
        />
        <line
            x1="434.64606299212596"
            y1="-245.66866929133855"
            x2="434.64606299212596"
            y2="-213.16488929133857"
            fill="none"
            stroke-width="0.5"
            stroke="#000"
        />
    </g>
    <g class="draggable">
        <use
            xlink:href="#node_circ"
            fill="#fff"
            stroke="#000"
            transform="matrix(1,0,0,1,337.77562031496063,-266.94878913385827)"
            style="color: #000;"
        />
    </g>
    <g class="draggable">
        <use
            xlink:href="#node_circ"
            fill="#fff"
            stroke="#000"
            transform="matrix(1,0,0,1,337.77562031496063,-266.94878913385827)"
            style="color: #000;"
        />
    </g>
    <g class="draggable">
        <use
            xlink:href="#node_circ"
            fill="#fff"
            stroke="#000"
            transform="matrix(1,0,0,1,337.77562031496063,-153.5629623622047)"
            style="color: #000;"
        />
    </g>
    <g class="draggable">
        <use
            xlink:href="#node_circ"
            fill="#fff"
            stroke="#000"
            transform="matrix(1,0,0,1,337.77562031496063,-153.5629623622047)"
            style="color: #000;"
        />
    </g>
    <g class="draggable">
        <use
            xlink:href="#node_circ"
            fill="#fff"
            stroke="#000"
            transform="matrix(1,0,0,1,432.26442346456685,-266.9484584251968)"
            style="color: #000;"
        />
    </g>
    <g class="draggable">
        <use
            xlink:href="#node_circ"
            fill="#fff"
            stroke="#000"
            transform="matrix(1,0,0,1,432.26442346456685,-266.9484584251968)"
            style="color: #000;"
        />
    </g>
    <g class="draggable">
        <use
            xlink:href="#node_circ"
            fill="#fff"
            stroke="#000"
            transform="matrix(1,0,0,1,432.26442346456685,-153.56263165354324)"
            style="color: #000;"
        />
    </g>
    <g class="draggable">
        <use
            xlink:href="#node_circ"
            fill="#fff"
            stroke="#000"
            transform="matrix(1,0,0,1,432.26442346456685,-153.56263165354324)"
            style="color: #000;"
        />
    </g>
    <g>
        <polyline
            points="0,9.448818897637778 0,-9.448818897637807"
            fill="none"
            stroke-dasharray="0.4pt 0pt"
            stroke-opacity="1"
            stroke-width="0.5333333333333333"
            stroke="#000"
            transform="matrix(1,0,0,1,340.15748031496065,-255.11811023622045)"
        />
    </g>
    <g>
        <polyline
            points="0,-9.448818897637807 0,9.448818897637778"
            fill="none"
            stroke-dasharray="0.4pt 0pt"
            stroke-opacity="1"
            stroke-width="0.5333333333333333"
            stroke="#000"
            transform="matrix(1,0,0,1,340.15748031496065,-160.6299212598425)"
        />
    </g>
    <g>
        <polyline
            points="0,9.448818897637778 0,-9.448818897637807"
            fill="none"
            stroke-dasharray="0.4pt 0pt"
            stroke-opacity="1"
            stroke-width="0.5333333333333333"
            stroke="#000"
            transform="matrix(1,0,0,1,434.64628346456686,-160.62959055118102)"
        />
    </g>
    <g>
        <polyline
            points="0,9.448818897637778 0,-9.448818897637807"
            fill="none"
            stroke-dasharray="0.4pt 0pt"
            stroke-opacity="1"
            stroke-width="0.5333333333333333"
            stroke="#000"
            transform="matrix(1,0,0,1,434.64628346456686,-255.11777952755898)"
        />
    </g>
    <g>
        <polyline
            points="-37.7952755905512,9.448818897637778 -37.7952755905512,-9.448818897637807 37.79527559055117,-9.448818897637807"
            fill="none"
            stroke-dasharray="0.4pt 0pt"
            stroke-opacity="1"
            stroke-width="0.5333333333333333"
            stroke="#000"
            transform="matrix(1,0,0,1,226.77165354330708,-255.11811023622045)"
        />
    </g>
    <g>
        <polyline
            points="0,-9.448818897637807 0,9.448818897637778"
            fill="none"
            stroke-dasharray="0.4pt 0pt"
            stroke-opacity="1"
            stroke-width="0.5333333333333333"
            stroke="#000"
            transform="matrix(1,0,0,1,188.97637795275588,-160.6299212598425)"
        />
    </g>
    <g class="">
        <rect
            width="45.91076115485564"
            height="36.461942257217835"
            style=""
            stroke-dasharray="1pt 0pt"
            stroke-opacity="1"
            stroke-width="1.3333333333333333"
            stroke="#000"
            fill-opacity="0"
            fill="none"
            x="260.509186351706"
            y="-207.2073490813648"
            transform="matrix(1,0,0,1,0,0)"
        />
        <g
            class="pointerNone"
            transform="matrix(1,0,0,1,274.9606902430376,-194.8214692956819)"
            fill="#000"
        >
            <g
                transform="matrix(0.012692352439768548,0,0,0.012692924416146325,0,8.948511713383159)"
            >
                <g
                    stroke="currentColor"
                    fill="inherit"
                    stroke-width="0"
                    transform="scale(1,-1)"
                >
                    <g>
                        <g transform="translate(603,0)">
                            <use xlink:href="#MJX-11-TEX-I-1D436" />
                        </g>
                        <use xlink:href="#MJX-11-TEX-I-1D707" />
                    </g>
                </g>
            </g>
        </g>
    </g>
    <g class="draggable">
        <use
            xlink:href="#node_circ"
            fill="#fff"
            stroke="#000"
            transform="matrix(1,0,0,1,281.0827069291338,-210.25587574803146)"
            style="color: #000;"
        />
    </g>
    <g>
        <polyline
            points="0.009216535433097306,-9.826977125984257 0.009216535433097306,9.826977125984286 -0.009216535433097306,9.826977125984286"
            fill="none"
            stroke-dasharray="0.4pt 0pt"
            stroke-opacity="1"
            stroke-width="0.5333333333333333"
            stroke="#000"
            transform="matrix(1,0,0,1,283.4737834645669,-217.70099287401575)"
        />
    </g>
    <g class="">
        <rect
            width="45.910761154855585"
            height="45.91076115485564"
            style=""
            stroke-dasharray="1pt 0pt"
            stroke-opacity="1"
            stroke-width="1.3333333333333333"
            stroke="#000"
            fill-opacity="0"
            fill="none"
            x="473.1082257217847"
            y="-226.10465616797896"
            transform="matrix(1,0,0,1,0,0)"
        />
        <g
            class="pointerNone"
            transform="matrix(1,0,0,1,479.100967444232,-208.92424945987486)"
            fill="#000"
        >
            <g
                transform="matrix(0.012691835373370387,0,0,0.012692248420403762,0,8.948035136384652)"
            >
                <g
                    stroke="currentColor"
                    fill="inherit"
                    stroke-width="0"
                    transform="scale(1,-1)"
                >
                    <g>
                        <g transform="translate(760,0)">
                            <use xlink:href="#MJX-16-TEX-I-1D44E" />
                        </g>
                        <g transform="translate(1289,0)">
                            <use xlink:href="#MJX-16-TEX-I-1D45F" />
                        </g>
                        <g transform="translate(1740,0)">
                            <use xlink:href="#MJX-16-TEX-I-1D454" />
                        </g>
                        <g transform="translate(2217,0)">
                            <use xlink:href="#MJX-16-TEX-I-1D44E" />
                        </g>
                        <use xlink:href="#MJX-16-TEX-I-1D436" />
                    </g>
                </g>
            </g>
        </g>
    </g>
    <g class="draggable">
        <use
            xlink:href="#node_circ"
            fill="#fff"
            stroke="#000"
            transform="matrix(1,0,0,1,493.6817462992125,-229.1531828346456)"
            style="color: #000;"
        />
    </g>
    <g class="draggable">
        <use
            xlink:href="#node_circ"
            fill="#fff"
            stroke="#000"
            transform="matrix(1,0,0,1,493.6817462992125,-181.90908834645663)"
            style="color: #000;"
        />
    </g>
    <g>
        <polyline
            points="-30.7086614173229,-18.897637795275585 30.708661417322787,-18.897637795275585 30.708661417322787,18.897637795275585"
            fill="none"
            stroke-dasharray="0.4pt 0pt"
            stroke-opacity="1"
            stroke-width="0.5333333333333333"
            stroke="#000"
            transform="matrix(1,0,0,1,465.3549448818898,-245.6689606299212)"
        />
    </g>
    <g>
        <polyline
            points="-30.7086614173229,14.173228346456682 30.708661417322787,14.173228346456682 30.708661417322787,-14.17322834645671"
            fill="none"
            stroke-dasharray="0.4pt 0pt"
            stroke-opacity="1"
            stroke-width="0.5333333333333333"
            stroke="#000"
            transform="matrix(1,0,0,1,465.3549448818898,-165.35399999999993)"
        />
    </g>
    <g>
        <polyline
            points="-122.83464566929135,0 122.83464566929132,0"
            fill="none"
            stroke-dasharray="0.4pt 0pt"
            stroke-opacity="1"
            stroke-width="0.5333333333333333"
            stroke="#000"
            transform="matrix(1,0,0,1,311.81102362204723,-151.1811023622047)"
        />
    </g>
    <g>
        <polyline
            points="-13.417464606299234,-0.00003543307087738867 13.417464606299177,-0.00003543307087738867 13.417464606299177,0.00003543307087738867"
            fill="none"
            stroke-dasharray="0.4pt 0pt"
            stroke-opacity="1"
            stroke-width="0.5333333333333333"
            stroke="#000"
            transform="matrix(1,0,0,1,336.1888346062992,-264.56696456692913)"
        />
    </g>
    <g>
        <polyline
            points="-4.7244094488189035,0 4.7244094488189035,0"
            fill="none"
            stroke-dasharray="0.4pt 0pt"
            stroke-opacity="1"
            stroke-width="0.5333333333333333"
            stroke="#000"
            transform="matrix(1,0,0,1,429.92125984251965,-264.56692913385825)"
        />
    </g>
</svg>
